<?xml version="1.0" encoding="UTF-8" standalone="no"?>
<!DOCTYPE svg PUBLIC "-//W3C//DTD SVG 1.1//EN"
 "http://www.w3.org/Graphics/SVG/1.1/DTD/svg11.dtd">
<!-- Generated by graphviz version 2.40.1 (20161225.0304)
 -->
<!-- Title: %3 Pages: 1 -->
<svg width="265pt" height="244pt"
 viewBox="0.00 0.00 264.50 244.00" xmlns="http://www.w3.org/2000/svg" xmlns:xlink="http://www.w3.org/1999/xlink">
<g id="graph0" class="graph" transform="scale(1 1) rotate(0) translate(4 240)">
<title>%3</title>
<polygon fill="#ffffff" stroke="transparent" points="-4,4 -4,-240 260.5,-240 260.5,4 -4,4"/>
<!-- &lt;built&#45;in method builtins.exec&gt; -->
<g id="node1" class="node">
<title>&lt;built&#45;in method builtins.exec&gt;</title>
<polygon fill="#ff0000" stroke="#ff0000" points="215,-236 65,-236 65,-184 215,-184 215,-236"/>
<text text-anchor="middle" x="140" y="-224" font-family="Arial" font-size="10.00" fill="#ffffff">&lt;built&#45;in method builtins.exec&gt;</text>
<text text-anchor="middle" x="140" y="-213" font-family="Arial" font-size="10.00" fill="#ffffff">100.00%</text>
<text text-anchor="middle" x="140" y="-202" font-family="Arial" font-size="10.00" fill="#ffffff">(4.35%)</text>
<text text-anchor="middle" x="140" y="-191" font-family="Arial" font-size="10.00" fill="#ffffff">0×</text>
</g>
<!-- &lt;module&gt; -->
<g id="node2" class="node">
<title>&lt;module&gt;</title>
<polygon fill="#f82c01" stroke="#f82c01" points="170,-144 110,-144 110,-92 170,-92 170,-144"/>
<text text-anchor="middle" x="140" y="-132" font-family="Arial" font-size="10.00" fill="#ffffff">&lt;module&gt;</text>
<text text-anchor="middle" x="140" y="-121" font-family="Arial" font-size="10.00" fill="#ffffff">95.65%</text>
<text text-anchor="middle" x="140" y="-110" font-family="Arial" font-size="10.00" fill="#ffffff">(8.70%)</text>
<text text-anchor="middle" x="140" y="-99" font-family="Arial" font-size="10.00" fill="#ffffff">1×</text>
</g>
<!-- &lt;built&#45;in method builtins.exec&gt;&#45;&gt;&lt;module&gt; -->
<g id="edge1" class="edge">
<title>&lt;built&#45;in method builtins.exec&gt;&#45;&gt;&lt;module&gt;</title>
<path fill="none" stroke="#f82c01" stroke-width="3.83" d="M140,-183.8826C140,-174.6565 140,-164.1091 140,-154.1983"/>
<polygon fill="#f82c01" stroke="#f82c01" stroke-width="3.83" points="143.4301,-153.9827 140,-144.1827 136.5701,-153.9828 143.4301,-153.9827"/>
<text text-anchor="middle" x="157" y="-167" font-family="Arial" font-size="10.00" fill="#f82c01">95.65%</text>
<text text-anchor="middle" x="157" y="-156" font-family="Arial" font-size="10.00" fill="#f82c01">1×</text>
</g>
<!-- &lt;built&#45;in method builtins.print&gt; -->
<g id="node3" class="node">
<title>&lt;built&#45;in method builtins.print&gt;</title>
<polygon fill="#e5a004" stroke="#e5a004" points="148,-52 0,-52 0,0 148,0 148,-52"/>
<text text-anchor="middle" x="74" y="-40" font-family="Arial" font-size="10.00" fill="#ffffff">&lt;built&#45;in method builtins.print&gt;</text>
<text text-anchor="middle" x="74" y="-29" font-family="Arial" font-size="10.00" fill="#ffffff">82.61%</text>
<text text-anchor="middle" x="74" y="-18" font-family="Arial" font-size="10.00" fill="#ffffff">(82.61%)</text>
<text text-anchor="middle" x="74" y="-7" font-family="Arial" font-size="10.00" fill="#ffffff">1×</text>
</g>
<!-- &lt;module&gt;&#45;&gt;&lt;built&#45;in method builtins.print&gt; -->
<g id="edge2" class="edge">
<title>&lt;module&gt;&#45;&gt;&lt;built&#45;in method builtins.print&gt;</title>
<path fill="none" stroke="#e5a004" stroke-width="3.3" d="M121.2636,-91.8826C114.0875,-81.8796 105.7972,-70.3233 98.1827,-59.7092"/>
<polygon fill="#e5a004" stroke="#e5a004" stroke-width="3.3" points="100.6757,-57.7203 92.7833,-52.1827 95.4998,-61.4334 100.6757,-57.7203"/>
<text text-anchor="middle" x="132" y="-75" font-family="Arial" font-size="10.00" fill="#e5a004">82.61%</text>
<text text-anchor="middle" x="132" y="-64" font-family="Arial" font-size="10.00" fill="#e5a004">1×</text>
</g>
<!-- my_super_function -->
<g id="node4" class="node">
<title>my_super_function</title>
<polygon fill="#0d1f78" stroke="#0d1f78" points="256.5,-52 157.5,-52 157.5,0 256.5,0 256.5,-52"/>
<text text-anchor="middle" x="207" y="-40" font-family="Arial" font-size="10.00" fill="#ffffff">my_super_function</text>
<text text-anchor="middle" x="207" y="-29" font-family="Arial" font-size="10.00" fill="#ffffff">4.35%</text>
<text text-anchor="middle" x="207" y="-18" font-family="Arial" font-size="10.00" fill="#ffffff">(4.35%)</text>
<text text-anchor="middle" x="207" y="-7" font-family="Arial" font-size="10.00" fill="#ffffff">1×</text>
</g>
<!-- &lt;module&gt;&#45;&gt;my_super_function -->
<g id="edge3" class="edge">
<title>&lt;module&gt;&#45;&gt;my_super_function</title>
<path fill="none" stroke="#0d1f78" stroke-width=".5" d="M159.0203,-91.8826C167.366,-80.4228 177.1963,-66.9245 185.7787,-55.1397"/>
<polygon fill="#0d1f78" stroke="#0d1f78" stroke-width=".5" points="186.8619,-55.7332 187.9321,-52.1827 184.8814,-54.2908 186.8619,-55.7332"/>
<text text-anchor="middle" x="195" y="-75" font-family="Arial" font-size="10.00" fill="#0d1f78">4.35%</text>
<text text-anchor="middle" x="195" y="-64" font-family="Arial" font-size="10.00" fill="#0d1f78">1×</text>
</g>
</g>
</svg>
